
<svg xmlns="http://www.w3.org/2000/svg" version="1.1" xmlns:xlink="http://www.w3.org/1999/xlink" preserveAspectRatio="none" x="0px" y="0px" width="344px" height="215px" viewBox="0 0 344 215">
<defs>
<g id="Layer0_0_FILL">
<path fill="#F4F4F4" stroke="none" d="
M 277.05 204.75
Q 278.25 203.6 278.25 201.95 278.25 200.3 277.05 199.1 275.9 197.95 274.25 197.95 272.6 197.95 271.4 199.1 270.25 200.3 270.25 201.95 270.25 203.6 271.4 204.75 272.6 205.95 274.25 205.95 275.9 205.95 277.05 204.75
M 297 194.15
Q 299.8 196.95 303.75 196.95 307.7 196.95 310.45 194.15 313.25 191.4 313.25 187.45 313.25 183.5 310.45 180.7 307.7 177.95 303.75 177.95 299.8 177.95 297 180.7 294.25 183.5 294.25 187.45 294.25 191.4 297 194.15
M 339.3 197.1
Q 341.2 195.2 341.2 192.5 341.2 189.8 339.3 187.9 337.4 186 334.7 186 332 186 330.1 187.9 328.2 189.8 328.2 192.5 328.2 195.2 330.1 197.1 332 199 334.7 199 337.4 199 339.3 197.1 Z"/>

<path fill="#CCCCCC" stroke="none" d="
M 69.85 166.3
Q 59.25 155.7 48.65 166.3
L 0.55 214.4
Q 0.25 214.7 0 215
L 61.75 215
Q 61.9 214.9 62 214.75
L 90.15 186.6 69.85 166.3 Z"/>

<path fill="#FFFFFF" stroke="none" d="
M 176.85 135.05
Q 175.15 133.35 173.5 132 166.35 126.25 159.25 126.25 152.2 126.25 145.1 132 143.4 133.35 141.7 135.05
L 90.15 186.6 62 214.75
Q 61.9 214.9 61.75 215 61.4 215.4 61.1 215.75
L 257.5 215.75
Q 257 215.25 256.5 214.75
L 176.85 135.05 Z"/>
</g>

<path id="Layer0_0_1_STROKES" stroke="#CCCCCC" stroke-width="4" stroke-linejoin="round" stroke-linecap="round" fill="none" d="
M 341.2 192.5
Q 341.2 195.2 339.3 197.1 337.4 199 334.7 199 332 199 330.1 197.1 328.2 195.2 328.2 192.5 328.2 189.8 330.1 187.9 332 186 334.7 186 337.4 186 339.3 187.9 341.2 189.8 341.2 192.5 Z
M 313.25 187.45
Q 313.25 191.4 310.45 194.15 307.7 196.95 303.75 196.95 299.8 196.95 297 194.15 294.25 191.4 294.25 187.45 294.25 183.5 297 180.7 299.8 177.95 303.75 177.95 307.7 177.95 310.45 180.7 313.25 183.5 313.25 187.45 Z
M 66.2 141.5
Q 66.2 143.35 64.85 144.65 63.55 146 61.7 146 59.85 146 58.5 144.65 57.2 143.35 57.2 141.5 57.2 139.65 58.5 138.3 59.85 137 61.7 137 63.55 137 64.85 138.3 66.2 139.65 66.2 141.5 Z
M 278.25 201.95
Q 278.25 203.6 277.05 204.75 275.9 205.95 274.25 205.95 272.6 205.95 271.4 204.75 270.25 203.6 270.25 201.95 270.25 200.3 271.4 199.1 272.6 197.95 274.25 197.95 275.9 197.95 277.05 199.1 278.25 200.3 278.25 201.95 Z"/>

<path id="Layer0_0_2_STROKES" stroke="#CCCCCC" stroke-width="2" stroke-linejoin="round" stroke-linecap="round" fill="none" d="
M 334.25 213.95
L 334.25 199.95
M 274.25 213.95
L 274.25 206.95
M 303.25 213.95
L 303.25 197.95"/>

<path id="Layer0_0_3_STROKES" stroke="#E5E5E5" stroke-width="3" stroke-linejoin="round" stroke-linecap="round" fill="none" d="
M 72.2 27.5
Q 72.2 35.6 66.5 41.3 60.8 47 52.7 47 44.6 47 38.9 41.3 33.2 35.6 33.2 27.5 33.2 19.4 38.9 13.7 44.6 8 52.7 8 60.8 8 66.5 13.7 72.2 19.4 72.2 27.5 Z"/>

<path id="Layer0_0_4_STROKES" stroke="#E5E5E5" stroke-width="5" stroke-linejoin="round" stroke-linecap="round" fill="none" d="
M 104.2 65.5
Q 104.2 70.25 100.8 73.6 97.45 77 92.7 77 87.95 77 84.55 73.6 81.2 70.25 81.2 65.5 81.2 60.75 84.55 57.35 87.95 54 92.7 54 97.45 54 100.8 57.35 104.2 60.75 104.2 65.5 Z"/>

<path id="Layer0_0_5_STROKES" stroke="#E0E0E0" stroke-width="2" stroke-linejoin="round" stroke-linecap="round" fill="none" d="
M 72.2 96.5
Q 72.2 100 69.7 102.5 67.2 105 63.7 105 60.2 105 57.7 102.5 55.2 100 55.2 96.5 55.2 94 56.5 92 57 91.2 57.7 90.5 60.2 88 63.7 88 67.2 88 69.7 90.5 70.4 91.2 70.95 92 72.2 94 72.2 96.5 Z"/>

<path id="Layer0_0_6_STROKES" stroke="#D7D7D7" stroke-width="3" stroke-linejoin="round" stroke-linecap="round" fill="none" d="
M 86.2 120.5
Q 86.2 123.2 84.3 125.1 84.25 125.15 84.2 125.2 82.35 127 79.7 127 77 127 75.1 125.1 73.2 123.2 73.2 120.5 73.2 117.8 75.1 115.9 77 114 79.7 114 82.35 114 84.2 115.8 84.25 115.85 84.3 115.9 86.2 117.8 86.2 120.5 Z"/>
</defs>

<g transform="matrix( 1, 0, 0, 1, 0,0) ">
<use xlink:href="#Layer0_0_FILL"/>

<use xlink:href="#Layer0_0_1_STROKES"/>

<use xlink:href="#Layer0_0_2_STROKES"/>

<use xlink:href="#Layer0_0_3_STROKES"/>

<use xlink:href="#Layer0_0_4_STROKES"/>

<use xlink:href="#Layer0_0_5_STROKES"/>

<use xlink:href="#Layer0_0_6_STROKES"/>
</g>
</svg>
