<?xml version="1.0" encoding="UTF-8"?>
<svg width="161px" height="41px" viewBox="0 0 161 41" version="1.1" xmlns="http://www.w3.org/2000/svg" xmlns:xlink="http://www.w3.org/1999/xlink">
    <!-- Generator: Sketch 42 (36781) - http://www.bohemiancoding.com/sketch -->
    <title>Page 1</title>
    <desc>Created with Sketch.</desc>
    <defs>
        <polygon id="path-1" points="1.04548067e-19 0.454133333 1.04548067e-19 22.3149429 9.50901429 22.3149429 9.50901429 0.454133333 0 0.454133333"></polygon>
        <polygon id="path-3" points="0 40.3438048 161.029929 40.3438048 161.029929 -0.000195238095 0 -0.000195238095"></polygon>
    </defs>
    <g id="Page-1" stroke="none" stroke-width="1" fill="none" fill-rule="evenodd">
        <g>
            <path d="M129.971829,4.06192857 C129.925543,3.24583333 129.904329,2.42388095 129.927471,1.60583333 C129.933257,1.40864286 130.087543,0.787785714 130.002686,0.61402381 C130.621757,1.87135714 131.474186,2.98030952 132.369043,4.04240476 C133.832829,5.78197619 135.711257,7.34778571 137.6379,8.57583333 C137.257971,7.2872619 137.2194,6.73669048 137.2194,6.73669048 L137.221329,6.73669048 C137.142257,6.35988095 137.074757,5.97721429 137.014971,5.5965 C136.731471,3.76321429 136.658186,1.85378571 136.723757,0.000976190476 C136.714114,0.28602381 137.092114,0.651119048 137.250257,0.846357143 C138.712114,2.62692857 140.4189,4.14978571 142.129543,5.67654762 C142.357114,5.87764286 142.611686,6.01821429 142.611686,6.01821429 C142.654114,5.98111905 144.688757,7.35364286 144.866186,7.46102381 C145.253829,7.69335714 145.718614,7.89054762 146.0754,8.16778571 C146.418686,8.43330952 146.380114,8.85502381 146.441829,9.25916667 C146.497757,9.62621429 146.513186,9.99716667 146.5074,10.368119 C146.491971,11.1354048 146.387829,11.9007381 146.424471,12.6699762 C146.518971,14.6028333 147.1959,16.5766905 148.063757,18.2791667 C148.156329,18.4587857 148.8159,19.7942143 149.182329,20.1124524 C149.2209,20.1417381 149.263329,20.1612619 149.305757,20.1788333 C149.313471,20.1788333 149.323114,20.1827381 149.3289,20.1807857 C149.3289,20.1807857 149.321186,20.1827381 149.317329,20.1846905 C149.676043,20.3096429 150.169757,20.0558333 150.169757,20.0558333 C151.076186,19.5286905 154.273757,18.0370714 155.567829,22.2639762 C155.567829,22.2639762 155.571686,22.267881 155.571686,22.2698333 C155.602543,22.3655 155.745257,22.6895952 155.837829,22.841881 C155.9304,22.9941667 156.156043,23.1659762 156.156043,23.1659762 L156.333471,23.2655476 L161.029543,25.8778333 C161.029543,25.8778333 158.152114,24.7103095 156.514757,24.308119 C156.312257,24.2573571 156.127114,24.2183095 155.9709,24.194881 C155.751043,24.1734048 155.521543,24.1773095 155.2419,24.2339286 C154.649829,24.349119 154.493614,24.0640714 154.408757,24.2456429 C154.325829,24.4272143 153.658543,24.8059762 152.998971,25.1808333 C152.3394,25.5537381 152.165829,26.3913095 152.165829,26.3913095 L152.1639,26.3913095 C151.909329,27.5685952 151.5024,28.6795 150.844757,29.7142619 C150.190971,30.745119 149.379043,31.6354048 148.368471,32.3167857 C147.485186,32.9122619 146.509329,33.4159762 145.496829,33.7459286 C144.823757,33.9645952 144.125614,34.1149286 143.425543,34.2359762 L143.423614,34.2359762 C142.210543,34.5034524 141.857614,34.9251667 141.757329,35.1340714 C141.743829,35.1711667 141.7284,35.2082619 141.716829,35.2473095 C141.7149,35.2531667 141.7149,35.2570714 141.7149,35.2570714 L141.711043,35.2590238 C141.500829,35.8584048 141.286757,36.4577857 141.022543,37.0356905 C140.6079,37.9376905 140.060186,38.749881 139.429543,39.5113095 C139.383257,39.569881 138.661971,40.2883571 138.6774,40.3430238 C138.332186,39.2379762 138.422829,37.8400714 138.415114,36.6959762 C138.403543,34.5542143 138.598329,32.385119 139.074686,30.2960714 C139.363971,29.0289762 139.853829,27.5998333 140.710114,26.5260238 C140.712043,26.5240714 140.706257,26.5201667 140.708186,26.5162619 C140.7294,26.4889286 140.762186,26.4518333 140.798829,26.408881 C140.806543,26.399119 140.814257,26.3893571 140.8239,26.3795952 C141.0129,26.1589762 141.319543,25.7860714 141.321471,25.4170714 C141.3234,25.0910238 141.076543,24.8352619 140.933829,24.7142143 C140.901043,24.686881 140.872114,24.6654048 140.833543,24.636119 C139.925186,23.9215476 137.736257,22.1409762 136.698686,20.7899286 C136.696757,20.7879762 136.690971,20.7840714 136.687114,20.782119 C136.106614,20.290119 135.454757,19.1538333 135.454757,19.1538333 C135.2214,18.7965476 135.015043,18.2967381 134.901257,18.1190714 C134.550257,17.5724048 134.220471,17.0159762 133.902257,16.4497857 C133.267757,15.3135 132.689186,14.1440238 132.147257,12.9589286 C130.853186,10.1396905 130.1454,7.16035714 129.971829,4.06192857 Z" id="Fill-1" fill="#2AABE2"></path>
            <g id="Group-5" transform="translate(0.000000, 15.962852)">
                <mask id="mask-2" fill="white">
                    <use xlink:href="#path-1"></use>
                </mask>
                <g id="Clip-4"></g>
                <polygon id="Fill-3" fill="#101C21" mask="url(#mask-2)" points="9.50901429 2.94146667 6.20344286 2.94146667 6.20344286 22.3149429 3.28744286 22.3149429 3.28744286 2.94146667 -0.000771428571 2.94146667 -0.000771428571 0.454133333 9.50901429 0.454133333"></polygon>
            </g>
            <polygon id="Fill-6" fill="#101C21" points="12.4923214 16.4162048 15.4083214 16.4162048 15.4083214 24.9266333 19.8999643 24.9266333 19.8999643 16.4162048 22.8159643 16.4162048 22.8159643 38.2770143 19.8999643 38.2770143 19.8999643 27.415919 15.4083214 27.415919 15.4083214 38.2770143 12.4923214 38.2770143"></polygon>
            <polygon id="Fill-8" fill="#101C21" points="34.7819786 38.2776 26.9674071 38.2776 26.9674071 16.4167905 34.6469786 16.4167905 34.6469786 18.9041238 29.8486929 18.9041238 29.8486929 25.8370286 34.2901929 25.8370286 34.2901929 28.3243619 29.8486929 28.3243619 29.8486929 35.8586 34.7819786 35.8586"></polygon>
            <polygon id="Fill-10" fill="#101C21" points="52.6986 38.2776 50.0082429 38.2776 48.9108857 24.2926952 48.8433857 24.2926952 45.9023143 38.2776 44.0875286 38.2776 41.3026714 24.2926952 41.2178143 24.2926952 40.0838143 38.2776 37.3587429 38.2776 39.4782429 16.4167905 41.9969571 16.4167905 45.0036 31.7390762 45.0711 31.7390762 48.1452429 16.4167905 50.6639571 16.4167905"></polygon>
            <polygon id="Fill-12" fill="#101C21" points="63.6993643 38.2776 55.8847929 38.2776 55.8847929 16.4167905 63.5643643 16.4167905 63.5643643 18.9041238 58.7660786 18.9041238 58.7660786 25.8370286 63.2075786 25.8370286 63.2075786 28.3243619 58.7660786 28.3243619 58.7660786 35.8586 63.6993643 35.8586"></polygon>
            <polygon id="Fill-14" fill="#101C21" points="74.9203714 18.904319 69.9543 18.904319 69.9543 25.802081 74.3958 25.802081 74.3958 28.2913667 69.9543 28.2913667 69.9543 38.2777952 67.0730143 38.2777952 67.0730143 16.4169857 74.9203714 16.4169857"></polygon>
            <mask id="mask-4" fill="white">
                <use xlink:href="#path-3"></use>
            </mask>
            <g id="Clip-17"></g>
            <polygon id="Fill-16" fill="#101C21" mask="url(#mask-4)" points="78.7512857 38.2762333 81.6672857 38.2762333 81.6672857 16.4154238 78.7512857 16.4154238"></polygon>
            <path d="M93.3283929,19.2303667 C92.3795357,18.7149381 91.5271071,18.4572238 90.7691786,18.4572238 C90.01125,18.4572238 89.36325,18.7325095 88.8290357,19.2811286 C88.2909643,19.8317 88.0228929,20.4935571 88.0228929,21.2706048 C88.0228929,21.8192238 88.1829643,22.4068905 88.5031071,23.0297 C88.8213214,23.6544619 89.5426071,24.6501762 90.6631071,26.0207476 C91.7836071,27.391319 92.6418214,28.580319 93.2358214,29.5877476 C93.8278929,30.5951762 94.1248929,31.7509857 94.1248929,33.0571286 C94.1248929,34.6815095 93.64275,36.0032714 92.6746071,37.0146048 C91.7103214,38.0278905 90.4471071,38.5355095 88.8868929,38.5355095 C88.0286786,38.5355095 86.9776071,38.2777952 85.7336786,37.7623667 L85.7336786,35.1364143 C85.7683929,35.1481286 85.8031071,35.1657 85.8358929,35.1891286 C86.0056071,35.314081 86.3623929,35.5054143 86.9043214,35.765081 C87.44625,36.0208429 87.9785357,36.1497 88.4973214,36.1497 C89.3458929,36.1497 90.0421071,35.8646524 90.59175,35.2926048 C91.1375357,34.7205571 91.4133214,33.9884143 91.4133214,33.0961762 C91.4133214,32.4772714 91.2744643,31.9052238 90.9948214,31.3800333 C90.7151786,30.8528905 90.2098929,30.1363667 89.4751071,29.2304619 L87.5291786,26.8075571 C86.7751071,25.8665095 86.2158214,25.0094143 85.85325,24.2304143 C85.4926071,23.4514143 85.3113214,22.5240333 85.3113214,21.4482714 C85.3113214,19.857081 85.7683929,18.5626524 86.6844643,17.5669381 C87.5986071,16.5712238 88.7866071,16.0733667 90.2426786,16.0733667 C91.2609643,16.0733667 92.2888929,16.331081 93.3283929,16.8445571 L93.3283929,19.2303667 Z" id="Fill-18" fill="#101C21" mask="url(#mask-4)"></path>
            <polygon id="Fill-19" fill="#101C21" mask="url(#mask-4)" points="97.49835 16.4162048 100.41435 16.4162048 100.41435 24.9266333 104.905993 24.9266333 104.905993 16.4162048 107.820064 16.4162048 107.820064 38.2770143 104.905993 38.2770143 104.905993 27.415919 100.41435 27.415919 100.41435 38.2770143 97.49835 38.2770143"></polygon>
            <polygon id="Fill-20" fill="#101C21" mask="url(#mask-4)" points="119.788007 38.2776 111.973436 38.2776 111.973436 16.4167905 119.653007 16.4167905 119.653007 18.9041238 114.854721 18.9041238 114.854721 25.8370286 119.296221 25.8370286 119.296221 28.3243619 114.854721 28.3243619 114.854721 35.8586 119.788007 35.8586"></polygon>
            <path d="M126.042557,26.0084476 C127.1727,25.985019 127.988486,25.7155905 128.493771,25.1943048 C128.993271,24.673019 129.245914,23.7261143 129.245914,22.3535905 C129.245914,21.0376857 129.016414,20.1005429 128.561271,19.5382571 C128.100343,18.9779238 127.319271,18.6987333 126.212271,18.6987333 L126.042557,18.6987333 L126.042557,26.0084476 Z M132.703843,38.2772095 L129.679843,38.2772095 L126.297129,28.0154952 L126.042557,28.0154952 L126.042557,38.2772095 L123.126557,38.2772095 L123.126557,16.4164 L127.161129,16.4164 C130.449343,16.4164 132.094414,18.2809238 132.094414,22.0099714 C132.094414,23.7026857 131.851414,24.9795429 131.365414,25.8366381 C130.879414,26.6956857 130.0887,27.3419238 128.991343,27.7753524 L132.703843,38.2772095 Z" id="Fill-21" fill="#101C21" mask="url(#mask-4)"></path>
        </g>
    </g>
</svg>